<mxfile host="app.diagrams.net" modified="2024-04-05T07:10:57.013Z" agent="Mozilla/5.0 (Windows NT 10.0; Win64; x64) AppleWebKit/537.36 (KHTML, like Gecko) Chrome/123.0.0.0 Safari/537.36" etag="8PEeLWNna-2FGBWrUiWQ" version="24.0.5" type="device">
  <diagram name="Page-1" id="r91gI6UuoR6IAJdptqaR">
    <mxGraphModel dx="1276" dy="743" grid="1" gridSize="10" guides="1" tooltips="1" connect="1" arrows="1" fold="1" page="1" pageScale="1" pageWidth="827" pageHeight="1169" math="0" shadow="0">
      <root>
        <mxCell id="0" />
        <mxCell id="1" parent="0" />
        <mxCell id="-wSuHcWpH3uOeK8MsPi1-1" value="ADMIN" style="shape=umlActor;verticalLabelPosition=bottom;verticalAlign=top;html=1;outlineConnect=0;" vertex="1" parent="1">
          <mxGeometry x="360" y="269" width="30" height="61" as="geometry" />
        </mxCell>
        <mxCell id="-wSuHcWpH3uOeK8MsPi1-2" value="USER" style="shape=umlActor;verticalLabelPosition=bottom;verticalAlign=top;html=1;outlineConnect=0;" vertex="1" parent="1">
          <mxGeometry x="360" y="390" width="30" height="60" as="geometry" />
        </mxCell>
        <mxCell id="-wSuHcWpH3uOeK8MsPi1-18" value="" style="group" vertex="1" connectable="0" parent="1">
          <mxGeometry x="100" y="280" width="110" height="200" as="geometry" />
        </mxCell>
        <mxCell id="-wSuHcWpH3uOeK8MsPi1-10" value="" style="whiteSpace=wrap;html=1;" vertex="1" parent="-wSuHcWpH3uOeK8MsPi1-18">
          <mxGeometry y="30" width="110" height="170" as="geometry" />
        </mxCell>
        <mxCell id="-wSuHcWpH3uOeK8MsPi1-11" value="Belajar&lt;div&gt;Bahasa&lt;/div&gt;" style="whiteSpace=wrap;html=1;fontSize=10;" vertex="1" parent="-wSuHcWpH3uOeK8MsPi1-18">
          <mxGeometry width="70" height="30" as="geometry" />
        </mxCell>
        <mxCell id="-wSuHcWpH3uOeK8MsPi1-12" value="Lihat" style="ellipse;whiteSpace=wrap;html=1;" vertex="1" parent="-wSuHcWpH3uOeK8MsPi1-18">
          <mxGeometry x="20" y="80" width="70" height="30" as="geometry" />
        </mxCell>
        <mxCell id="-wSuHcWpH3uOeK8MsPi1-14" value="Tambah" style="ellipse;whiteSpace=wrap;html=1;" vertex="1" parent="-wSuHcWpH3uOeK8MsPi1-18">
          <mxGeometry x="20" y="40" width="70" height="30" as="geometry" />
        </mxCell>
        <mxCell id="-wSuHcWpH3uOeK8MsPi1-15" value="Ubah" style="ellipse;whiteSpace=wrap;html=1;" vertex="1" parent="-wSuHcWpH3uOeK8MsPi1-18">
          <mxGeometry x="20" y="120" width="70" height="30" as="geometry" />
        </mxCell>
        <mxCell id="-wSuHcWpH3uOeK8MsPi1-16" value="Hapus" style="ellipse;whiteSpace=wrap;html=1;" vertex="1" parent="-wSuHcWpH3uOeK8MsPi1-18">
          <mxGeometry x="20" y="160" width="70" height="30" as="geometry" />
        </mxCell>
        <mxCell id="-wSuHcWpH3uOeK8MsPi1-21" value="" style="group" vertex="1" connectable="0" parent="1">
          <mxGeometry x="610" y="260" width="110" height="200" as="geometry" />
        </mxCell>
        <mxCell id="-wSuHcWpH3uOeK8MsPi1-22" value="" style="whiteSpace=wrap;html=1;" vertex="1" parent="-wSuHcWpH3uOeK8MsPi1-21">
          <mxGeometry y="30" width="110" height="170" as="geometry" />
        </mxCell>
        <mxCell id="-wSuHcWpH3uOeK8MsPi1-23" value="Kelola&lt;div&gt;Pelajaran&lt;/div&gt;" style="whiteSpace=wrap;html=1;fontSize=10;" vertex="1" parent="-wSuHcWpH3uOeK8MsPi1-21">
          <mxGeometry width="70" height="30" as="geometry" />
        </mxCell>
        <mxCell id="-wSuHcWpH3uOeK8MsPi1-24" value="Lihat" style="ellipse;whiteSpace=wrap;html=1;" vertex="1" parent="-wSuHcWpH3uOeK8MsPi1-21">
          <mxGeometry x="20" y="80" width="70" height="30" as="geometry" />
        </mxCell>
        <mxCell id="-wSuHcWpH3uOeK8MsPi1-25" value="Tambah" style="ellipse;whiteSpace=wrap;html=1;" vertex="1" parent="-wSuHcWpH3uOeK8MsPi1-21">
          <mxGeometry x="20" y="40" width="70" height="30" as="geometry" />
        </mxCell>
        <mxCell id="-wSuHcWpH3uOeK8MsPi1-26" value="Ubah" style="ellipse;whiteSpace=wrap;html=1;" vertex="1" parent="-wSuHcWpH3uOeK8MsPi1-21">
          <mxGeometry x="20" y="120" width="70" height="30" as="geometry" />
        </mxCell>
        <mxCell id="-wSuHcWpH3uOeK8MsPi1-27" value="Hapus" style="ellipse;whiteSpace=wrap;html=1;" vertex="1" parent="-wSuHcWpH3uOeK8MsPi1-21">
          <mxGeometry x="20" y="160" width="70" height="30" as="geometry" />
        </mxCell>
        <mxCell id="-wSuHcWpH3uOeK8MsPi1-28" value="" style="group" vertex="1" connectable="0" parent="1">
          <mxGeometry x="100" y="70" width="110" height="200" as="geometry" />
        </mxCell>
        <mxCell id="-wSuHcWpH3uOeK8MsPi1-29" value="" style="whiteSpace=wrap;html=1;" vertex="1" parent="-wSuHcWpH3uOeK8MsPi1-28">
          <mxGeometry y="30" width="110" height="170" as="geometry" />
        </mxCell>
        <mxCell id="-wSuHcWpH3uOeK8MsPi1-30" value="Kelola Pengguna" style="whiteSpace=wrap;html=1;fontSize=10;" vertex="1" parent="-wSuHcWpH3uOeK8MsPi1-28">
          <mxGeometry width="70" height="30" as="geometry" />
        </mxCell>
        <mxCell id="-wSuHcWpH3uOeK8MsPi1-31" value="Lihat" style="ellipse;whiteSpace=wrap;html=1;" vertex="1" parent="-wSuHcWpH3uOeK8MsPi1-28">
          <mxGeometry x="20" y="80" width="70" height="30" as="geometry" />
        </mxCell>
        <mxCell id="-wSuHcWpH3uOeK8MsPi1-32" value="Tambah" style="ellipse;whiteSpace=wrap;html=1;" vertex="1" parent="-wSuHcWpH3uOeK8MsPi1-28">
          <mxGeometry x="20" y="40" width="70" height="30" as="geometry" />
        </mxCell>
        <mxCell id="-wSuHcWpH3uOeK8MsPi1-33" value="Ubah" style="ellipse;whiteSpace=wrap;html=1;" vertex="1" parent="-wSuHcWpH3uOeK8MsPi1-28">
          <mxGeometry x="20" y="120" width="70" height="30" as="geometry" />
        </mxCell>
        <mxCell id="-wSuHcWpH3uOeK8MsPi1-34" value="Hapus" style="ellipse;whiteSpace=wrap;html=1;" vertex="1" parent="-wSuHcWpH3uOeK8MsPi1-28">
          <mxGeometry x="20" y="160" width="70" height="30" as="geometry" />
        </mxCell>
        <mxCell id="-wSuHcWpH3uOeK8MsPi1-35" value="" style="group" vertex="1" connectable="0" parent="1">
          <mxGeometry x="610" y="485" width="110" height="200" as="geometry" />
        </mxCell>
        <mxCell id="-wSuHcWpH3uOeK8MsPi1-36" value="" style="whiteSpace=wrap;html=1;" vertex="1" parent="-wSuHcWpH3uOeK8MsPi1-35">
          <mxGeometry y="30" width="110" height="170" as="geometry" />
        </mxCell>
        <mxCell id="-wSuHcWpH3uOeK8MsPi1-37" value="Moderasi Forum" style="whiteSpace=wrap;html=1;fontSize=10;" vertex="1" parent="-wSuHcWpH3uOeK8MsPi1-35">
          <mxGeometry width="70" height="30" as="geometry" />
        </mxCell>
        <mxCell id="-wSuHcWpH3uOeK8MsPi1-38" value="Lihat" style="ellipse;whiteSpace=wrap;html=1;" vertex="1" parent="-wSuHcWpH3uOeK8MsPi1-35">
          <mxGeometry x="20" y="80" width="70" height="30" as="geometry" />
        </mxCell>
        <mxCell id="-wSuHcWpH3uOeK8MsPi1-39" value="Tambah" style="ellipse;whiteSpace=wrap;html=1;" vertex="1" parent="-wSuHcWpH3uOeK8MsPi1-35">
          <mxGeometry x="20" y="40" width="70" height="30" as="geometry" />
        </mxCell>
        <mxCell id="-wSuHcWpH3uOeK8MsPi1-40" value="Ubah" style="ellipse;whiteSpace=wrap;html=1;" vertex="1" parent="-wSuHcWpH3uOeK8MsPi1-35">
          <mxGeometry x="20" y="120" width="70" height="30" as="geometry" />
        </mxCell>
        <mxCell id="-wSuHcWpH3uOeK8MsPi1-41" value="Hapus" style="ellipse;whiteSpace=wrap;html=1;" vertex="1" parent="-wSuHcWpH3uOeK8MsPi1-35">
          <mxGeometry x="20" y="160" width="70" height="30" as="geometry" />
        </mxCell>
        <mxCell id="-wSuHcWpH3uOeK8MsPi1-43" value="" style="whiteSpace=wrap;html=1;" vertex="1" parent="1">
          <mxGeometry x="610" y="110" width="110" height="130" as="geometry" />
        </mxCell>
        <mxCell id="-wSuHcWpH3uOeK8MsPi1-44" value="Favorit" style="whiteSpace=wrap;html=1;fontSize=10;" vertex="1" parent="1">
          <mxGeometry x="610" y="80" width="70" height="30" as="geometry" />
        </mxCell>
        <mxCell id="-wSuHcWpH3uOeK8MsPi1-45" value="Lihat" style="ellipse;whiteSpace=wrap;html=1;" vertex="1" parent="1">
          <mxGeometry x="630" y="160" width="70" height="30" as="geometry" />
        </mxCell>
        <mxCell id="-wSuHcWpH3uOeK8MsPi1-46" value="Tambah" style="ellipse;whiteSpace=wrap;html=1;" vertex="1" parent="1">
          <mxGeometry x="630" y="120" width="70" height="30" as="geometry" />
        </mxCell>
        <mxCell id="-wSuHcWpH3uOeK8MsPi1-48" value="Hapus" style="ellipse;whiteSpace=wrap;html=1;" vertex="1" parent="1">
          <mxGeometry x="630" y="200" width="70" height="30" as="geometry" />
        </mxCell>
        <mxCell id="-wSuHcWpH3uOeK8MsPi1-52" value="" style="endArrow=classic;html=1;rounded=0;exitX=0;exitY=0.3333333333333333;exitDx=0;exitDy=0;exitPerimeter=0;entryX=1;entryY=0.5;entryDx=0;entryDy=0;" edge="1" parent="1" source="-wSuHcWpH3uOeK8MsPi1-1" target="-wSuHcWpH3uOeK8MsPi1-32">
          <mxGeometry width="50" height="50" relative="1" as="geometry">
            <mxPoint x="330" y="290" as="sourcePoint" />
            <mxPoint x="380" y="240" as="targetPoint" />
          </mxGeometry>
        </mxCell>
        <mxCell id="-wSuHcWpH3uOeK8MsPi1-53" value="" style="endArrow=classic;html=1;rounded=0;exitX=0;exitY=0.3333333333333333;exitDx=0;exitDy=0;exitPerimeter=0;entryX=1;entryY=0.5;entryDx=0;entryDy=0;" edge="1" parent="1" source="-wSuHcWpH3uOeK8MsPi1-1" target="-wSuHcWpH3uOeK8MsPi1-31">
          <mxGeometry width="50" height="50" relative="1" as="geometry">
            <mxPoint x="370" y="210" as="sourcePoint" />
            <mxPoint x="240" y="125" as="targetPoint" />
          </mxGeometry>
        </mxCell>
        <mxCell id="-wSuHcWpH3uOeK8MsPi1-54" value="" style="endArrow=classic;html=1;rounded=0;exitX=0;exitY=0.3333333333333333;exitDx=0;exitDy=0;exitPerimeter=0;entryX=1;entryY=0.5;entryDx=0;entryDy=0;" edge="1" parent="1" source="-wSuHcWpH3uOeK8MsPi1-1" target="-wSuHcWpH3uOeK8MsPi1-33">
          <mxGeometry width="50" height="50" relative="1" as="geometry">
            <mxPoint x="380" y="220" as="sourcePoint" />
            <mxPoint x="250" y="135" as="targetPoint" />
          </mxGeometry>
        </mxCell>
        <mxCell id="-wSuHcWpH3uOeK8MsPi1-55" value="" style="endArrow=classic;html=1;rounded=0;exitX=0;exitY=0.3333333333333333;exitDx=0;exitDy=0;exitPerimeter=0;entryX=1;entryY=0.5;entryDx=0;entryDy=0;" edge="1" parent="1" source="-wSuHcWpH3uOeK8MsPi1-1" target="-wSuHcWpH3uOeK8MsPi1-34">
          <mxGeometry width="50" height="50" relative="1" as="geometry">
            <mxPoint x="390" y="230" as="sourcePoint" />
            <mxPoint x="260" y="145" as="targetPoint" />
          </mxGeometry>
        </mxCell>
        <mxCell id="-wSuHcWpH3uOeK8MsPi1-56" value="" style="endArrow=classic;html=1;rounded=0;exitX=1;exitY=0.3333333333333333;exitDx=0;exitDy=0;exitPerimeter=0;entryX=0;entryY=0.5;entryDx=0;entryDy=0;" edge="1" parent="1" source="-wSuHcWpH3uOeK8MsPi1-2" target="-wSuHcWpH3uOeK8MsPi1-46">
          <mxGeometry width="50" height="50" relative="1" as="geometry">
            <mxPoint x="400" y="240" as="sourcePoint" />
            <mxPoint x="270" y="155" as="targetPoint" />
          </mxGeometry>
        </mxCell>
        <mxCell id="-wSuHcWpH3uOeK8MsPi1-57" value="" style="endArrow=classic;html=1;rounded=0;entryX=0;entryY=0.5;entryDx=0;entryDy=0;exitX=1;exitY=0.3333333333333333;exitDx=0;exitDy=0;exitPerimeter=0;" edge="1" parent="1" source="-wSuHcWpH3uOeK8MsPi1-2" target="-wSuHcWpH3uOeK8MsPi1-45">
          <mxGeometry width="50" height="50" relative="1" as="geometry">
            <mxPoint x="400" y="340" as="sourcePoint" />
            <mxPoint x="510" y="135" as="targetPoint" />
          </mxGeometry>
        </mxCell>
        <mxCell id="-wSuHcWpH3uOeK8MsPi1-58" value="" style="endArrow=classic;html=1;rounded=0;exitX=1;exitY=0.3333333333333333;exitDx=0;exitDy=0;exitPerimeter=0;entryX=0;entryY=0.5;entryDx=0;entryDy=0;" edge="1" parent="1" source="-wSuHcWpH3uOeK8MsPi1-2" target="-wSuHcWpH3uOeK8MsPi1-48">
          <mxGeometry width="50" height="50" relative="1" as="geometry">
            <mxPoint x="410" y="350" as="sourcePoint" />
            <mxPoint x="520" y="145" as="targetPoint" />
          </mxGeometry>
        </mxCell>
        <mxCell id="-wSuHcWpH3uOeK8MsPi1-59" value="" style="endArrow=classic;html=1;rounded=0;exitX=1;exitY=0.3333333333333333;exitDx=0;exitDy=0;exitPerimeter=0;entryX=0;entryY=0.5;entryDx=0;entryDy=0;" edge="1" parent="1" source="-wSuHcWpH3uOeK8MsPi1-1" target="-wSuHcWpH3uOeK8MsPi1-25">
          <mxGeometry width="50" height="50" relative="1" as="geometry">
            <mxPoint x="420" y="360" as="sourcePoint" />
            <mxPoint x="530" y="155" as="targetPoint" />
          </mxGeometry>
        </mxCell>
        <mxCell id="-wSuHcWpH3uOeK8MsPi1-60" value="" style="endArrow=classic;html=1;rounded=0;exitX=1;exitY=0.3333333333333333;exitDx=0;exitDy=0;exitPerimeter=0;entryX=0;entryY=0.5;entryDx=0;entryDy=0;" edge="1" parent="1" source="-wSuHcWpH3uOeK8MsPi1-1" target="-wSuHcWpH3uOeK8MsPi1-24">
          <mxGeometry width="50" height="50" relative="1" as="geometry">
            <mxPoint x="430" y="370" as="sourcePoint" />
            <mxPoint x="540" y="165" as="targetPoint" />
          </mxGeometry>
        </mxCell>
        <mxCell id="-wSuHcWpH3uOeK8MsPi1-61" value="" style="endArrow=classic;html=1;rounded=0;entryX=0;entryY=0.5;entryDx=0;entryDy=0;exitX=1;exitY=0.3333333333333333;exitDx=0;exitDy=0;exitPerimeter=0;" edge="1" parent="1" source="-wSuHcWpH3uOeK8MsPi1-1" target="-wSuHcWpH3uOeK8MsPi1-26">
          <mxGeometry width="50" height="50" relative="1" as="geometry">
            <mxPoint x="390" y="200" as="sourcePoint" />
            <mxPoint x="550" y="175" as="targetPoint" />
          </mxGeometry>
        </mxCell>
        <mxCell id="-wSuHcWpH3uOeK8MsPi1-62" value="" style="endArrow=classic;html=1;rounded=0;exitX=1;exitY=0.3333333333333333;exitDx=0;exitDy=0;exitPerimeter=0;entryX=0;entryY=0.5;entryDx=0;entryDy=0;" edge="1" parent="1" source="-wSuHcWpH3uOeK8MsPi1-1" target="-wSuHcWpH3uOeK8MsPi1-27">
          <mxGeometry width="50" height="50" relative="1" as="geometry">
            <mxPoint x="450" y="390" as="sourcePoint" />
            <mxPoint x="560" y="185" as="targetPoint" />
          </mxGeometry>
        </mxCell>
        <mxCell id="-wSuHcWpH3uOeK8MsPi1-63" value="" style="endArrow=classic;html=1;rounded=0;exitX=1;exitY=0.3333333333333333;exitDx=0;exitDy=0;exitPerimeter=0;entryX=0;entryY=0.5;entryDx=0;entryDy=0;" edge="1" parent="1" source="-wSuHcWpH3uOeK8MsPi1-2" target="-wSuHcWpH3uOeK8MsPi1-24">
          <mxGeometry width="50" height="50" relative="1" as="geometry">
            <mxPoint x="460" y="400" as="sourcePoint" />
            <mxPoint x="570" y="195" as="targetPoint" />
          </mxGeometry>
        </mxCell>
        <mxCell id="-wSuHcWpH3uOeK8MsPi1-67" value="" style="endArrow=classic;html=1;rounded=0;exitX=0;exitY=0.3333333333333333;exitDx=0;exitDy=0;exitPerimeter=0;entryX=1;entryY=0.5;entryDx=0;entryDy=0;" edge="1" parent="1" source="-wSuHcWpH3uOeK8MsPi1-2" target="-wSuHcWpH3uOeK8MsPi1-12">
          <mxGeometry width="50" height="50" relative="1" as="geometry">
            <mxPoint x="370" y="340" as="sourcePoint" />
            <mxPoint x="240" y="415" as="targetPoint" />
          </mxGeometry>
        </mxCell>
        <mxCell id="-wSuHcWpH3uOeK8MsPi1-68" value="" style="endArrow=classic;html=1;rounded=0;exitX=0;exitY=0.3333333333333333;exitDx=0;exitDy=0;exitPerimeter=0;entryX=1;entryY=0.5;entryDx=0;entryDy=0;" edge="1" parent="1" source="-wSuHcWpH3uOeK8MsPi1-1" target="-wSuHcWpH3uOeK8MsPi1-15">
          <mxGeometry width="50" height="50" relative="1" as="geometry">
            <mxPoint x="380" y="350" as="sourcePoint" />
            <mxPoint x="250" y="425" as="targetPoint" />
          </mxGeometry>
        </mxCell>
        <mxCell id="-wSuHcWpH3uOeK8MsPi1-69" value="" style="endArrow=classic;html=1;rounded=0;exitX=0;exitY=0.3333333333333333;exitDx=0;exitDy=0;exitPerimeter=0;entryX=1;entryY=0.5;entryDx=0;entryDy=0;" edge="1" parent="1" source="-wSuHcWpH3uOeK8MsPi1-1" target="-wSuHcWpH3uOeK8MsPi1-16">
          <mxGeometry width="50" height="50" relative="1" as="geometry">
            <mxPoint x="390" y="360" as="sourcePoint" />
            <mxPoint x="260" y="435" as="targetPoint" />
          </mxGeometry>
        </mxCell>
        <mxCell id="-wSuHcWpH3uOeK8MsPi1-70" value="" style="endArrow=classic;html=1;rounded=0;exitX=1;exitY=0.3333333333333333;exitDx=0;exitDy=0;exitPerimeter=0;entryX=0;entryY=0.5;entryDx=0;entryDy=0;" edge="1" parent="1" source="-wSuHcWpH3uOeK8MsPi1-2" target="-wSuHcWpH3uOeK8MsPi1-38">
          <mxGeometry width="50" height="50" relative="1" as="geometry">
            <mxPoint x="400" y="370" as="sourcePoint" />
            <mxPoint x="270" y="445" as="targetPoint" />
          </mxGeometry>
        </mxCell>
        <mxCell id="-wSuHcWpH3uOeK8MsPi1-71" value="" style="endArrow=classic;html=1;rounded=0;exitX=0;exitY=0.3333333333333333;exitDx=0;exitDy=0;exitPerimeter=0;entryX=1;entryY=0.5;entryDx=0;entryDy=0;" edge="1" parent="1" source="-wSuHcWpH3uOeK8MsPi1-1" target="-wSuHcWpH3uOeK8MsPi1-12">
          <mxGeometry width="50" height="50" relative="1" as="geometry">
            <mxPoint x="410" y="380" as="sourcePoint" />
            <mxPoint x="280" y="455" as="targetPoint" />
          </mxGeometry>
        </mxCell>
        <mxCell id="-wSuHcWpH3uOeK8MsPi1-72" value="" style="endArrow=classic;html=1;rounded=0;exitX=0;exitY=0.3333333333333333;exitDx=0;exitDy=0;exitPerimeter=0;entryX=1;entryY=0.5;entryDx=0;entryDy=0;" edge="1" parent="1" source="-wSuHcWpH3uOeK8MsPi1-1" target="-wSuHcWpH3uOeK8MsPi1-14">
          <mxGeometry width="50" height="50" relative="1" as="geometry">
            <mxPoint x="420" y="390" as="sourcePoint" />
            <mxPoint x="290" y="465" as="targetPoint" />
          </mxGeometry>
        </mxCell>
        <mxCell id="-wSuHcWpH3uOeK8MsPi1-74" value="" style="endArrow=classic;html=1;rounded=0;exitX=1;exitY=0.3333333333333333;exitDx=0;exitDy=0;exitPerimeter=0;entryX=0;entryY=0.5;entryDx=0;entryDy=0;" edge="1" parent="1" source="-wSuHcWpH3uOeK8MsPi1-1" target="-wSuHcWpH3uOeK8MsPi1-39">
          <mxGeometry width="50" height="50" relative="1" as="geometry">
            <mxPoint x="400" y="340" as="sourcePoint" />
            <mxPoint x="450" y="550" as="targetPoint" />
          </mxGeometry>
        </mxCell>
        <mxCell id="-wSuHcWpH3uOeK8MsPi1-75" value="" style="endArrow=classic;html=1;rounded=0;exitX=1;exitY=0.3333333333333333;exitDx=0;exitDy=0;exitPerimeter=0;" edge="1" parent="1" source="-wSuHcWpH3uOeK8MsPi1-1">
          <mxGeometry width="50" height="50" relative="1" as="geometry">
            <mxPoint x="410" y="350" as="sourcePoint" />
            <mxPoint x="639" y="570" as="targetPoint" />
          </mxGeometry>
        </mxCell>
        <mxCell id="-wSuHcWpH3uOeK8MsPi1-76" value="" style="endArrow=classic;html=1;rounded=0;exitX=1;exitY=0.3333333333333333;exitDx=0;exitDy=0;exitPerimeter=0;entryX=0;entryY=0.5;entryDx=0;entryDy=0;" edge="1" parent="1" source="-wSuHcWpH3uOeK8MsPi1-1" target="-wSuHcWpH3uOeK8MsPi1-40">
          <mxGeometry width="50" height="50" relative="1" as="geometry">
            <mxPoint x="420" y="360" as="sourcePoint" />
            <mxPoint x="600" y="610" as="targetPoint" />
          </mxGeometry>
        </mxCell>
        <mxCell id="-wSuHcWpH3uOeK8MsPi1-77" value="" style="endArrow=classic;html=1;rounded=0;exitX=1;exitY=0.3333333333333333;exitDx=0;exitDy=0;exitPerimeter=0;entryX=0;entryY=0.5;entryDx=0;entryDy=0;" edge="1" parent="1" source="-wSuHcWpH3uOeK8MsPi1-1" target="-wSuHcWpH3uOeK8MsPi1-41">
          <mxGeometry width="50" height="50" relative="1" as="geometry">
            <mxPoint x="430" y="370" as="sourcePoint" />
            <mxPoint x="610" y="620" as="targetPoint" />
          </mxGeometry>
        </mxCell>
      </root>
    </mxGraphModel>
  </diagram>
</mxfile>
